<svg width="24" height="24" viewBox="0 0 24 24" fill="none" xmlns="http://www.w3.org/2000/svg">
<g id="ei:search">
<path id="Vector" d="M11.04 17.28C7.58399 17.28 4.79999 14.496 4.79999 11.04C4.79999 7.58402 7.58399 4.80002 11.04 4.80002C14.496 4.80002 17.28 7.58402 17.28 11.04C17.28 14.496 14.496 17.28 11.04 17.28ZM11.04 5.76002C8.11199 5.76002 5.75999 8.11202 5.75999 11.04C5.75999 13.968 8.11199 16.32 11.04 16.32C13.968 16.32 16.32 13.968 16.32 11.04C16.32 8.11202 13.968 5.76002 11.04 5.76002Z" fill="black" fill-opacity="0.6"/>
<path id="Vector_2" d="M15.6873 15.0081L19.9977 19.3186L19.319 19.9973L15.0086 15.6869L15.6873 15.0081Z" fill="black" fill-opacity="0.6"/>
</g>
</svg>
